<?xml version="1.0" encoding="utf-8"?>
<!-- Generator: Adobe Illustrator 22.0.1, SVG Export Plug-In . SVG Version: 6.00 Build 0)  -->
<svg version="1.1" id="Capa_1" xmlns="http://www.w3.org/2000/svg" xmlns:xlink="http://www.w3.org/1999/xlink" x="0px" y="0px"
	 viewBox="0 0 960 560" style="enable-background:new 0 0 960 560;" xml:space="preserve">
<style type="text/css">
	.st0{fill:#B52835;}
	.st1{fill:#5B9CA2;}
</style>
<path class="st0" d="M383.1,258.4c-8.9,24.8-17.9,38.9-27,42.2c-6.2,2.3-12.1,1.8-17.6-1.4c-5.6-3.2-9.6-8.3-12.2-15.3
	c-2.6-7.2-3.3-15.9-2.1-25.9c-6.6,23.7-12.2,40.1-16.9,49.2c-4.7,9.2-10.4,15-17.1,17.4c-7.1,2.6-14.2,1.7-21.2-2.6
	c-7-4.3-12.3-11.1-15.6-20.4c-9.4-25.7,0.5-55.2,29.6-88.2c12.7-14.7,24-23.8,33.8-27.3c8.3-3,13.9-0.5,16.9,7.5
	c0.8,2.3,1.4,5.5,1.7,9.6l3.2-23.2c4.4-0.5,8.1-1.4,11.2-2.5c3.6-1.3,8.1-3.5,13.6-6.5l-14.2,71.9c-4.8,25.1-6,41-3.6,47.6
	c2.3,6.3,6.1,8.5,11.3,6.6c5.4-2,11.7-11.2,19.1-27.8c7.3-16.6,13.9-36.1,19.5-58.6c0.3-1.6,0.8-2.6,1.5-2.8c0.8-0.3,1.4,0,1.6,0.8
	C399.3,211.4,394.3,228,383.1,258.4L383.1,258.4z M330.8,195.5c-2.4-6.6-6.6-8.8-12.6-6.6c-12.3,4.5-24.1,22.5-35.4,53.9
	s-14.2,54.6-8.8,69.5c3.2,8.7,8.6,11.7,16.4,8.8c9.3-3.4,19.7-24.6,31.3-63.6C331.2,225.6,334.2,204.9,330.8,195.5L330.8,195.5z
	 M463.9,188.4l-4.3,15c-12.6,44.3-25,68.6-37.1,73c-5.8,2.1-11.3,1.6-16.6-1.4c-5.3-3-9.1-7.9-11.6-14.6c-2.7-7.4-3.6-15.1-2.7-23.3
	s5.3-32.3,13.1-72.5c9.6-49.2,17.3-91.6,23.1-127.3c4.4-0.4,8.2-1.2,11.2-2.3c5.1-1.9,9.5-4.4,13.2-7.5
	c-22.2,114.2-35,181.3-38.3,201.2s-4,32.5-2,37.9c2.2,6,5.8,8.1,10.9,6.3c11.3-4.1,24.2-32.9,38.8-86.5c0.2-1.6,0.7-2.6,1.7-2.9
	c0.6-0.1,1,0.2,1.2,0.9C465,185.3,464.7,186.6,463.9,188.4L463.9,188.4z M564.4,154.3l-4.7,14c-15.3,44.4-32.9,70.2-52.8,77.4
	c-9.4,3.4-18.5,2.9-27.4-1.5c-8.8-4.5-15.1-11.8-18.8-22c-8.8-24.1,0.3-51.5,27.3-82.1c14.2-16.1,26.8-26.2,38-30.2
	c4.8-1.8,9.5-1.8,13.9-0.2c4.5,1.6,7.5,4.5,9,8.7c3.5,9.7,0.2,20.2-9.9,31.5c-10.1,11.4-28.9,25.4-56.2,42
	c-4.1,17.1-4.5,30.3-1.1,39.6c4.2,11.5,12.5,15,25,10.5c21.2-7.7,39.7-37.9,55.3-90.4c0.8-2.7,1.8-4.3,2.9-4.7
	c0.6-0.1,1,0.2,1.2,0.9C566.3,148.1,565.7,150.3,564.4,154.3L564.4,154.3z M524.8,149.6c10.1-13.9,13.7-24.9,10.8-33
	c-1.6-4.3-4.7-5.6-9.4-3.9c-7.1,2.6-14.7,10.9-22.7,25s-14.7,31-20.2,50.7C500.9,176.5,514.7,163.5,524.8,149.6L524.8,149.6z
	 M708.9,97.4l-1.2,4.1c-9,29.9-16.7,51.1-23.1,63.6c-6.6,13.1-14,21.1-22.1,24s-16.2,2.4-24.5-1.7c-8.3-4-14-10.1-16.9-18.3
	c-1.3-3.6-2.2-9.1-2.5-16.4c-7,37.5-17.4,58.7-31,63.7c-4.3,1.6-8.5,1.2-12.7-1c-4.1-2.2-7.1-5.7-8.8-10.4c-2.5-7-2.4-14.3,0.4-22
	c2.8-7.7,7.1-12.6,12.9-14.7c7.1-2.6,11.9-0.5,14.4,6.3c2.8,7.8-0.7,15.1-10.6,22.1c-5.4,3.8-7.4,7.9-5.8,12.3
	c1.5,4.2,4.8,5.3,9.7,3.5c9.9-3.6,18-16.8,24.3-39.6c10-36,12-62.3,5.9-79c-3-8.2-8.2-10.9-15.7-8.2c-12.7,4.6-24,24.3-33.8,59.1
	c-1.2,3.9-2.1,6-2.9,6.3c-0.6-0.1-1-0.4-1.2-0.9c-0.9-2.4,2.6-13.4,10.5-32.9s17.1-31.2,27.5-35c8-2.9,15.7-2.6,22.9,1
	s12.3,9.6,15.4,17.9c1.5,4,2.1,8.9,1.9,14.6c8.2-35,19-55,32.4-59.9c10.2-3.7,17.3-0.1,21.3,10.9c2.4,6.6,2.4,13.5,0,20.7
	c-2.4,7.2-6.2,11.8-11.4,13.7c-6.6,2.4-11.1,0.2-13.6-6.7c-2.3-6.4,0.8-12.9,9.4-19.4c5.4-3.9,7.3-8.2,5.6-12.7
	C684,58.1,680.5,57,675,59c-11.4,4.1-21.1,20.7-29,49.5c-7.9,28.9-9,51.2-3.3,67c3.7,10.2,10.4,13.5,20.1,10
	c14-5.1,28.1-33.4,42.3-85c1.1-3.7,1.9-5.7,2.6-6c0.8-0.3,1.4,0,1.6,0.8L708.9,97.4L708.9,97.4z"/>
<path class="st1" d="M183.8,466.1c-5.4,12.4-11.4,19.7-18,22.1c-4.4,1.6-9,0.5-13.7-3.2c-4.5,15.6-8.6,26.9-12.5,33.7
	c-3.9,6.8-8.7,11.3-14.4,13.4c-5.1,1.9-10.1,1.7-14.9-0.6s-8.1-5.9-10-11c-2.2-5.9-1.9-15.8,0.7-29.6l9.3-48.7
	c5.1-1.3,8.5-2.2,10.2-2.9c3.7-1.3,6.6-2.7,8.6-4l-13,62.5c-2.8,14-3.3,23.2-1.7,27.6c1.7,4.7,5.2,6.1,10.6,4.2
	c4.9-1.8,9.2-5.9,12.7-12.3c3.5-6.4,7.8-17.7,12.9-33.7c-2-2.7-3.4-5.2-4.3-7.5c-3.3-9.1-3.9-19.6-1.8-31.3
	c2.1-11.7,5.8-18.5,11-20.4c2.5-0.9,4.3,0.1,5.4,3c2.7,7.5,0,26.1-8.1,55.7c3.8,3.8,7.9,4.8,12.3,3.2c7.7-2.8,14.5-13,20.5-30.6
	c1.1-3.2,2-4.8,2.6-5.1c0.4-0.1,0.7,0,0.8,0.4C189.6,452.2,187.8,457.2,183.8,466.1L183.8,466.1z M240.2,435.5l-3.2,11.3
	c-9.4,33.2-19,51.6-29,55.2c-4.7,1.7-9.3,1.5-13.7-0.7s-7.5-5.8-9.3-10.9c-2.1-5.8-1.9-15.9,0.7-30.3l9-48.5c3.4-0.4,6-1,7.8-1.6
	c2.7-1,6.4-2.7,11.1-5.2l-13.8,68.7c-2,9.9-2.1,17.1-0.5,21.5c1.6,4.5,4.8,5.9,9.6,4.2c9-3.3,18.9-25,29.9-65.1
	c0.1-1.2,0.5-1.9,1-2.1c0.6-0.2,1,0,1.2,0.6C240.8,432.9,240.6,433.8,240.2,435.5L240.2,435.5z M207,390.6c-4.5,1.6-7.6,0.2-9.3-4.3
	c-1.2-3.3-0.8-7.1,1.2-11.3c2-4.2,4.7-6.9,8.1-8.2c4.3-1.6,7.3-0.2,8.8,4.1c1.3,3.5,1,7.4-0.9,11.5
	C213.2,386.6,210.5,389.3,207,390.6L207,390.6z M286,462.3c-6.4,9.8-15.6,17-27.7,21.4c-6.8,2.5-13,2.5-18.5,0.1s-9.4-6.9-11.8-13.4
	c-2.7-7.5-2.7-15.9,0.1-25s7-14.7,12.8-16.8c1-0.4,2-0.5,2.9-0.4l6.7-19.2c2-5.6,4.7-13.4,8-23.2c-0.9-7.7-0.4-14.6,1.3-21
	c1.7-6.3,4.2-10.1,7.7-11.3c1.6-0.6,2.7,0,3.4,1.8c1.5,4-1.9,14.3-10.2,30.8c0.5,3.3,1.2,6.2,2.1,8.5c2.1,5.8,8.2,14.1,18.1,24.9
	c5,5.4,8.3,10.2,9.9,14.5C293.9,443,292.4,452.4,286,462.3L286,462.3z M271.4,422.5c-1.1-3-2.3-6-3.6-8.9c-1.3-2.9-2.9-7.1-4.9-12.6
	c-1.6-4.5-2.8-8.4-3.5-11.5c-3,9.2-7.5,22.2-13.5,39.1c2.5,0.9,4.2,2.5,5,4.8c2.2,5.9-1.3,11.7-10.2,17.4c-3.6,2.3-6.2,5.7-7.8,10.1
	s-1.8,8.5-0.4,12.2c1.5,4,4.1,6.9,8.1,8.5c3.9,1.7,8,1.7,12.3,0.1c8.4-3.1,14.7-10.9,18.7-23.5C275.6,445.7,275.5,433.7,271.4,422.5
	L271.4,422.5z M364.1,416.4c-9.3,22.6-19.5,35.8-30.3,39.8c-7,2.6-14.1,2.1-21.1-1.5c-7-3.5-11.8-9-14.6-16.5
	c-3.1-8.4-2.8-18.4,0.7-30c3.5-11.5,9.9-22.7,19.1-33.4c7.7-9.2,14.6-14.9,20.8-17.1c7.4-2.7,12.8,0.4,16,9.2
	c2.5,6.9,2.7,14.7,0.6,23.4c-2.2,8.6-5.5,13.8-10.2,15.5c-4.5,1.6-7.6,0.2-9.3-4.3c-1.9-5.3,0.9-11.9,8.5-19.8
	c5.9-6.1,7.7-12,5.7-17.8c-1.6-4.5-4.9-5.9-9.9-4.1c-8.4,3-15.6,15.1-21.7,36.1s-7.1,37.2-3,48.4c3.4,9.5,9.6,12.6,18.5,9.3
	c13.9-5.1,27-27.6,39.4-67.5c0.7-2.1,1.4-3.2,2-3.5c0.4,0,0.8,0.2,0.9,0.7C376.6,384.6,372.6,395.6,364.1,416.4L364.1,416.4z
	 M457.1,366.3c-4.6,11.3-10.2,18.1-17,20.6c-7.7,2.8-13.1-0.2-16.3-9.1c-1-2.8-1.7-6.6-2.1-11.4c-4.3,7.8-7.5,15.2-9.5,22.1
	s-4.8,20.4-8.5,40.7c-5.5,1.5-8.7,2.5-9.6,2.8c-0.4,0.1-3.4,1.5-9,4l10.1-49.1c5-24.6,6.7-39.3,4.9-44.2c-1-2.8-2.7-3.8-5-3
	c-5.6,2.1-11.9,16.6-18.9,43.7c-0.4,1.7-0.9,2.7-1.6,3c-0.4,0-0.8-0.2-0.9-0.7s0-1,0.2-1.4l1.4-4.8c8-26.3,14.8-40.5,20.3-42.5
	c8.1-2.9,14,0.8,17.7,11.1c2.8,7.7,2.4,19.5-1.2,35.3c3-7.9,6.2-14.7,9.6-20.2c0.6-10.3,2.6-19.6,6.1-27.7s7.5-13,12-14.6
	c3.1-1.1,5.2-0.3,6.2,2.4c1.8,4.8-2.7,14.3-13.4,28.3c-1.7,2.2-4.3,5.5-7.7,9.8l-1.3,2.2c0.3,5.1,1,9.2,2.1,12.2
	c3.1,8.4,7.8,11.5,14.1,9.2c7.9-2.9,14.1-12.5,18.6-28.9c1.2-3,2.1-4.5,2.6-4.7c0.6-0.2,1,0,1.2,0.6
	C462.5,352.8,460.8,357.5,457.1,366.3L457.1,366.3z M536.8,329.4l-3.5,10.5c-11.5,33.3-24.7,52.7-39.6,58.1
	c-7,2.6-13.9,2.2-20.5-1.2c-6.6-3.3-11.3-8.8-14.1-16.5c-6.6-18.1,0.2-38.6,20.5-61.6c10.6-12.1,20.1-19.6,28.5-22.7
	c3.6-1.3,7.1-1.4,10.5-0.1c3.4,1.2,5.6,3.4,6.7,6.5c2.6,7.2,0.2,15.1-7.5,23.6c-7.6,8.5-21.7,19-42.2,31.5
	c-3.1,12.9-3.3,22.7-0.8,29.7c3.2,8.6,9.4,11.3,18.8,7.9c15.9-5.8,29.7-28.4,41.5-67.8c0.6-2,1.3-3.2,2.1-3.5c0.4,0,0.8,0.2,0.9,0.7
	C538.2,324.8,537.8,326.4,536.8,329.4L536.8,329.4z M507.1,325.9c7.6-10.4,10.3-18.7,8.1-24.7c-1.2-3.2-3.5-4.2-7-2.9
	c-5.3,1.9-11,8.2-17,18.7c-6,10.6-11,23.2-15.1,38C489.1,346,499.5,336.3,507.1,325.9L507.1,325.9z M632.7,323.1
	c-6.7,18.6-13.4,29.2-20.3,31.7c-4.6,1.7-9,1.3-13.2-1.1s-7.2-6.2-9.1-11.5c-2-5.4-2.5-11.9-1.6-19.4c-4.9,17.7-9.2,30-12.7,36.9
	s-7.8,11.2-12.8,13c-5.3,1.9-10.6,1.3-15.9-2c-5.3-3.3-9.2-8.4-11.7-15.3c-7-19.3,0.4-41.4,22.2-66.2c9.5-11,18-17.8,25.3-20.5
	c6.2-2.3,10.4-0.4,12.6,5.6c0.6,1.7,1,4.1,1.3,7.2l2.4-17.4c3.3-0.4,6.1-1,8.4-1.9c2.7-1,6.1-2.6,10.2-4.9l-10.6,53.9
	c-3.6,18.9-4.5,30.8-2.7,35.7c1.7,4.7,4.5,6.4,8.5,4.9s8.8-8.4,14.3-20.9c5.5-12.4,10.4-27.1,14.6-43.9c0.2-1.2,0.6-1.9,1.1-2.1
	c0.6-0.2,1,0,1.2,0.6C644.9,287.8,641.1,300.3,632.7,323.1L632.7,323.1z M593.5,275.9c-1.8-4.9-5-6.6-9.5-4.9
	c-9.3,3.4-18.1,16.8-26.6,40.4s-10.6,40.9-6.6,52.1c2.4,6.5,6.5,8.7,12.3,6.6c6.9-2.5,14.8-18.4,23.5-47.7
	C593.8,298.5,596,282.9,593.5,275.9L593.5,275.9z M754,278.9c-6.8,18.7-13.6,29.2-20.4,31.7c-4.5,1.6-9,1.3-13.3-1.1
	c-4.4-2.4-7.5-6.2-9.3-11.3c-1.7-4.5-2.2-9.1-1.8-13.6c0.5-4.6,2.5-14,6.2-28.3c3.8-15,5-24.2,3.8-27.5c-1.5-4.1-4.4-5.4-8.7-3.8
	c-14.7,5.3-27.4,40.8-38.1,106.5c-5.1,1.4-8.1,2.3-9.1,2.6c-3.5,1.3-6.8,2.7-9.7,4.2l10-45.8c5.6-26.2,7.5-42,5.5-47.3
	c-1.1-3-2.9-4.1-5.4-3.2c-5.1,1.9-11.3,16.4-18.6,43.6c-0.4,1.6-0.9,2.6-1.3,2.9c-0.5,0.2-0.9,0-1.2-0.6c-0.1-0.5,0-1,0.2-1.4
	l1.5-4.8c7.9-26.3,14.5-40.4,19.9-42.3c3.4-1.2,6.9-0.7,10.5,1.5s6.1,5.5,7.7,9.8c2.3,6.4,1.8,16.8-1.5,31
	c5.9-20.7,10.9-35.3,15.1-43.6c4.2-8.4,9-13.5,14.4-15.5c4.4-1.6,8.8-1.2,13.1,1.4c4.3,2.5,7.5,6.4,9.4,11.8
	c2.5,6.7,1.6,18.7-2.6,36c-4.3,17.6-5.7,28.4-4.3,32.3c1.5,4.1,4.3,5.4,8.4,3.9c9-3.3,18.6-24.9,29-64.8c0.1-1.2,0.5-1.9,1-2.1
	c0.6-0.2,1,0,1.2,0.6C766,243.7,762.3,256.2,754,278.9L754,278.9z M850.7,243.7c-6.9,18.7-13.8,29.3-20.9,31.9
	c-4.4,1.6-8.8,1.2-13.2-1.3s-7.5-6.2-9.3-11.2c-1.4-3.9-1.5-10.1-0.1-18.6l-1.5,5.2c-4.9,15.2-8.8,25.7-11.7,31.3
	c-3.1,6.2-6.7,10.1-11,11.7c-4.4,1.6-8.8,1.2-13.1-1.1c-4.3-2.4-7.3-6.1-9.2-11.1c-2.1-5.8-2.3-13.3-0.5-22.5l10.7-56.2
	c3.7-0.5,6.5-1.2,8.4-1.9s5.2-2.3,9.9-4.8l-14.4,72.2c-1.4,7.4-1.3,13.3,0.4,18c1.6,4.5,4.4,6.1,8.2,4.7
	c10.2-3.7,19.5-28.6,28.2-74.7l5.7-30.4c3.4-0.4,6.1-1,8.2-1.8c2.5-0.9,6-2.6,10.3-5l-9.8,48.2c-4.7,22.9-6,37-4.1,42.3
	c1.6,4.3,4.4,5.7,8.6,4.2c8.1-2.9,16.5-20.4,25.4-52.4l2.3-8.2l1.5-4.3c0.1-1.2,0.5-1.9,1-2.1c0.6-0.2,1,0,1.2,0.6
	C862.8,208.8,859.1,221.2,850.7,243.7L850.7,243.7z"/>
</svg>
